<svg version="1" xmlns="http://www.w3.org/2000/svg" width="933.333" height="933.333" viewBox="0 0 700.000000 700.000000"><path d="M27.3 83C16 85.4 7.6 91.7 3.1 101c-2.4 5-2.6 6.5-2.5 17.5.1 16 2.2 23.1 14.4 49 5.8 12.4 6.6 14.4 9.8 24.5 3.1 9.9 6.5 23.3 7.7 31 .4 2.5.9 5.4 1.1 6.4.4 2.4 2.1 15.3 2.9 22.6.4 3 .8 6.8 1 8.5.2 1.6.7 7 1 12 .4 4.9.9 9.7 1 10.5.2.8.6 4.4 1 8 2.7 26.1 7.6 41.5 16.1 51 6.3 7 11.9 9.4 27.4 12.1 8.2 1.5 59.6 1.9 75.3.7 4.9-.4 8.7-.5 8.5-.4-.1.2-5.7 3.6-12.3 7.6-31.1 19-52 36.7-64.1 54.5-11.5 16.9-11.8 42.6-.8 69.3 5.8 14.3 16.3 31.7 26.3 43.9 2.3 2.8 4 6.5 5.2 11 5.1 20 16.1 36.5 30.7 46.2 2.7 1.7 5.2 4.5 6.5 7.2 4.4 9 13.5 15.9 25 19 4.2 1.1 18.4 1.5 19.4.6.3-.3 3 .4 6.1 1.5 7.2 2.7 16.8 2.9 24.3.4 7.3-2.3 17.7-10.2 25.4-19.2 3.3-3.9 8.1-9.6 10.7-12.6 5.7-6.7 13-11.7 22.4-15.4 14.4-5.7 20.6-11.6 28.6-27.1 12.9-25 26.3-69.3 28.1-93.2.2-3.4 1.7-2.4 1.7 1.1 0 8.8 6.9 38.6 13.3 57.3 5.2 15.1 9.3 25 14.9 35.7 7.4 14.2 13.6 20.1 26.3 25.4 14.5 5.9 18.7 9.1 29.4 22.3 10.5 12.9 17.6 19.3 26.7 23.7 6.9 3.5 8.3 3.8 15.7 3.7 5.6 0 9.8-.6 13.2-1.9 3.8-1.5 6.5-1.8 11.4-1.4 16.4 1.4 32.6-7 39-20.2 1.5-3.2 3.5-5.4 6.4-7.1 4.7-2.8 14.4-12.3 18.1-17.8 6.2-9 11.2-21 13.1-30.9.4-1.9 2.4-5.5 4.4-8 5.2-6.2 15.1-21.1 19.5-29.4 14.5-26.9 18.8-53.8 11.9-72.6-7.5-20.1-30.3-41.8-68.3-65-7.4-4.5-13.7-8.4-13.9-8.6-.2-.2 3.8 0 9 .4 19.6 1.5 69.5.7 78.4-1.2 13-2.8 18.2-5.3 24-11.7 9.8-10.9 14.3-28.7 18-70.9.8-9.1 1.5-15.9 2-20 .3-1.9.7-5.8 1-8.5.3-2.8.7-6.1 1-7.5.2-1.3.7-4.2 1.1-6.5 3-21.2 9.6-42.7 19.1-62.5 11.1-23.2 14.8-36.4 14.1-50.7-.6-11-3.5-17.9-10.2-24.1-7-6.5-13.7-8.5-29.6-8.8-55.3-1-113.6 21.2-163.4 62.4-44.7 37.1-85.8 90.8-115.2 150.5-6.9 14.1-7.3 14.6-7.9 11.5-1.2-5.3-4.2-10.5-8-13.5-2.7-2.2-3.5-3.5-3.5-6 0-1.7-.9-4.7-1.9-6.5l-2-3.3 4.4-12.8c4.5-13.3 12.9-31.5 19.1-41.5 4.6-7.2 9.5-14.3 11.1-16 .7-.7 1.3-1.6 1.3-2 0-.4 2.3-3.2 5-6.2 5.4-6 6.3-9.5 3.2-12.3-4.5-4.1-9.8-.1-21.6 16.2-8.2 11.4-21 33.7-22.3 38.6-.1.5-1.8 4.8-3.7 9.5-2 4.7-3.6 9.1-3.6 9.7 0 3.3-1.9.6-4-6-6-18.2-25.1-50.7-37.8-64.5-5.2-5.7-8.6-6.6-11.5-3.4-2.8 3-2 6.3 2.6 11.5 16.9 19.4 32.1 47.9 40 75.3 1.3 4.6 1.3 5.3 0 6.6-.8.9-1.7 3.4-2 5.6-.4 3.1-1.7 5.3-5.3 9-3.5 3.6-5.1 6.3-6.1 10l-1.3 5.1-7.1-14.7c-9-18.5-20-37.6-32.3-56.2-5.2-7.9-9.9-14.9-10.4-15.5-.4-.5-4-5.3-8-10.5C211.9 139.2 144.9 94.9 73 84.5c-12.8-1.9-39.9-2.8-45.7-1.5z"/></svg>